<?xml version="1.0" standalone="no"?>
<!DOCTYPE svg PUBLIC "-//W3C//DTD SVG 20010904//EN"
 "http://www.w3.org/TR/2001/REC-SVG-20010904/DTD/svg10.dtd">
<svg version="1.0" xmlns="http://www.w3.org/2000/svg"
 width="256.000000pt" height="256.000000pt" viewBox="0 0 256.000000 256.000000"
 preserveAspectRatio="xMidYMid meet">

<g transform="translate(0.000000,256.000000) scale(0.100000,-0.100000)"
fill="#000000" stroke="none">
<path d="M0 1280 l0 -1280 1280 0 1280 0 0 1280 0 1280 -1280 0 -1280 0 0
-1280z m1895 1201 c101 -29 232 -96 312 -161 127 -103 233 -273 273 -440 19
-80 20 -117 20 -593 0 -557 -3 -588 -60 -727 -83 -202 -256 -371 -461 -450
-136 -52 -224 -60 -699 -60 -541 0 -618 10 -799 105 -194 102 -342 289 -403
510 -21 76 -22 101 -26 565 -4 516 0 583 42 715 75 237 281 443 519 519 45 15
109 31 142 35 33 5 285 8 560 7 486 -2 502 -3 580 -25z"/>
</g>
</svg>
